<?xml version="1.0" standalone="no"?>
<!DOCTYPE svg PUBLIC "-//W3C//DTD SVG 20010904//EN"
 "http://www.w3.org/TR/2001/REC-SVG-20010904/DTD/svg10.dtd">
<svg version="1.0" xmlns="http://www.w3.org/2000/svg"
 width="500.000000pt" height="500.000000pt" viewBox="0 0 500.000000 500.000000"
 preserveAspectRatio="xMidYMid meet">
<metadata>
Created by potrace 1.14, written by Peter Selinger 2001-2017
</metadata>
<g transform="translate(0.000000,500.000000) scale(0.100000,-0.100000)"
fill="#000000" stroke="none">
<path d="M4015 3479 c-80 -12 -225 -55 -304 -90 -205 -92 -398 -282 -505 -496
-26 -52 -76 -192 -76 -212 0 -8 78 -11 249 -11 l248 0 7 50 c17 131 83 304
151 399 77 107 233 206 363 232 75 14 225 7 295 -15 128 -40 263 -145 336
-261 37 -59 75 -144 98 -220 7 -22 17 -31 36 -33 l27 -3 0 335 0 336 -24 0
c-19 0 -27 -8 -36 -37 -7 -21 -24 -50 -38 -65 -43 -46 -72 -45 -238 11 -251
84 -410 106 -589 80z"/>
<path d="M0 3420 c0 -28 2 -30 39 -30 77 0 152 -41 172 -94 8 -20 14 -132 17
-328 l4 -298 54 0 54 0 2 285 3 285 119 -277 c65 -153 122 -281 125 -286 4 -4
115 -6 248 -5 l240 3 -158 370 c-87 204 -162 378 -168 388 -10 16 -40 17 -381
17 l-370 0 0 -30z"/>
<path d="M1823 3438 c-6 -7 -80 -183 -165 -390 l-156 -378 58 0 58 0 56 133
c30 72 87 206 125 297 l70 165 1 -297 0 -298 234 0 235 0 3 303 c3 299 3 302
27 341 32 52 87 75 174 76 l67 0 0 30 0 30 -389 0 c-299 0 -391 -3 -398 -12z"/>
<path d="M256 2475 c-10 -44 -20 -90 -23 -102 -3 -13 0 -23 5 -23 6 0 16 27
23 60 6 33 14 60 18 60 3 0 17 -27 30 -61 13 -33 27 -57 31 -52 4 4 18 35 31
68 l24 60 13 -65 c15 -69 18 -77 28 -67 7 7 -25 168 -36 180 -4 5 -17 -20 -30
-55 -13 -35 -26 -67 -30 -71 -4 -4 -20 27 -37 70 l-30 77 -17 -79z"/>
<path d="M1231 2527 c-6 -15 -24 -58 -41 -98 -34 -81 -34 -79 -20 -79 6 0 15
11 20 25 8 22 16 25 55 25 39 0 45 -3 51 -25 3 -14 12 -25 19 -25 8 0 -1 33
-27 98 -22 53 -42 99 -44 101 -2 2 -8 -8 -13 -22z m17 -105 c-17 -2 -32 -1
-35 1 -2 3 3 22 12 43 l17 39 18 -40 17 -40 -29 -3z"/>
<path d="M2013 2542 c-12 -2 -34 -17 -48 -33 -76 -91 42 -212 132 -135 35 30
24 46 -13 17 -54 -43 -124 -10 -124 57 0 65 78 96 127 50 28 -26 44 -16 19 11
-21 24 -63 38 -93 33z"/>
<path d="M2970 2452 c0 -61 4 -102 10 -102 6 0 10 28 10 65 0 36 3 65 8 65 4
0 19 -19 34 -43 15 -23 37 -53 48 -67 l20 -25 0 98 c0 58 -4 97 -10 97 -6 0
-10 -29 -10 -67 l0 -67 -46 64 c-26 36 -51 69 -55 75 -5 5 -9 -35 -9 -93z"/>
<path d="M3522 2539 c-25 -10 -44 -42 -36 -63 3 -8 29 -24 57 -35 43 -15 52
-23 52 -42 0 -21 -6 -24 -38 -27 -29 -2 -42 2 -52 15 -7 10 -17 15 -21 11 -15
-15 29 -48 63 -48 50 0 73 16 73 50 0 23 -7 33 -30 45 -16 8 -35 15 -43 15 -8
0 -22 8 -31 19 -16 17 -16 20 -1 35 21 20 49 20 70 0 19 -19 33 -11 16 10 -15
18 -52 25 -79 15z"/>
<path d="M4043 2535 c-17 -7 -39 -28 -48 -46 -50 -97 78 -187 156 -110 39 40
40 89 2 130 -34 36 -68 44 -110 26z m67 -15 c19 0 50 -45 50 -71 0 -41 -35
-79 -74 -79 -66 0 -105 64 -71 116 18 27 52 45 73 38 8 -2 18 -4 22 -4z"/>
<path d="M550 2445 c0 -57 4 -95 10 -95 6 0 10 38 10 95 0 57 -4 95 -10 95 -6
0 -10 -38 -10 -95z"/>
<path d="M700 2445 c0 -95 16 -133 22 -52 l3 42 30 -42 c17 -24 36 -43 43 -43
8 0 -1 20 -22 49 l-36 48 36 47 c22 29 30 46 21 46 -8 0 -27 -19 -43 -42 l-29
-42 -3 42 c-6 80 -22 42 -22 -53z"/>
<path d="M920 2445 c0 -57 4 -95 10 -95 6 0 10 20 10 45 l0 45 45 0 45 0 0
-45 c0 -25 5 -45 10 -45 6 0 10 38 10 95 0 57 -4 95 -10 95 -5 0 -10 -18 -10
-40 l0 -40 -45 0 -45 0 0 40 c0 22 -4 40 -10 40 -6 0 -10 -38 -10 -95z"/>
<path d="M1440 2445 c0 -57 4 -95 10 -95 6 0 10 38 10 95 0 57 -4 95 -10 95
-6 0 -10 -38 -10 -95z"/>
<path d="M1580 2445 l0 -95 45 0 c25 0 45 5 45 10 0 6 -16 10 -35 10 l-35 0 0
85 c0 50 -4 85 -10 85 -6 0 -10 -38 -10 -95z"/>
<path d="M2240 2445 c0 -57 4 -95 10 -95 6 0 10 21 10 46 l0 45 43 -3 c42 -3
42 -3 45 -45 6 -81 22 -43 22 52 0 57 -4 95 -10 95 -5 0 -10 -18 -10 -40 l0
-40 -45 0 -45 0 0 40 c0 22 -4 40 -10 40 -6 0 -10 -38 -10 -95z"/>
<path d="M2490 2445 l0 -95 60 0 c33 0 60 4 60 10 0 6 -23 10 -51 10 l-50 0 3
33 c3 31 5 32 51 35 59 4 52 22 -9 22 -42 0 -44 1 -44 30 0 29 2 30 44 30 25
0 48 5 51 10 4 6 -17 10 -54 10 l-61 0 0 -95z"/>
<path d="M2740 2445 c0 -57 4 -95 10 -95 6 0 10 18 10 40 0 22 4 40 10 40 5 0
22 -18 36 -40 15 -22 33 -40 42 -40 10 0 7 10 -13 35 l-27 36 26 20 c52 41 22
99 -52 99 l-42 0 0 -95z m95 56 c10 -33 -5 -51 -41 -51 -32 0 -34 2 -34 35 0
33 2 35 34 35 25 0 36 -5 41 -19z"/>
<path d="M3229 2523 c5 -10 21 -33 35 -52 19 -25 26 -47 26 -78 0 -24 5 -43
10 -43 6 0 10 22 10 48 0 39 6 58 30 90 33 45 35 52 20 52 -5 0 -22 -18 -36
-40 l-27 -40 -29 40 c-30 40 -58 56 -39 23z"/>
<path d="M3740 2445 c0 -57 4 -95 10 -95 6 0 10 20 10 45 l0 45 40 0 40 0 0
-45 c0 -25 5 -45 10 -45 6 0 10 38 10 95 0 57 -4 95 -10 95 -5 0 -10 -18 -10
-40 l0 -40 -40 0 -40 0 0 40 c0 22 -4 40 -10 40 -6 0 -10 -38 -10 -95z"/>
<path d="M4323 2445 c22 -53 44 -92 48 -88 7 8 79 170 79 179 0 2 -4 4 -8 4
-5 0 -22 -30 -37 -67 -15 -38 -31 -71 -34 -75 -4 -4 -20 26 -36 67 -17 41 -35
75 -42 75 -6 0 6 -40 30 -95z"/>
<path d="M230 1993 c-1 -235 -7 -287 -46 -346 -28 -42 -108 -87 -156 -87 -24
0 -28 -4 -28 -30 l0 -30 311 0 310 0 -3 28 c-3 26 -6 27 -68 33 -36 3 -78 13
-95 21 -40 21 -91 76 -104 111 -7 17 -11 125 -11 273 l0 244 -55 0 -55 0 0
-217z"/>
<path d="M792 2201 c2 -5 70 -165 152 -355 108 -250 154 -346 166 -346 12 0
55 92 158 338 77 185 144 345 148 355 5 15 -1 17 -48 17 -47 0 -56 -3 -65 -22
l-10 -23 -7 23 -7 22 -246 0 c-141 0 -243 -4 -241 -9z"/>
<path d="M1868 1937 l-3 -274 -29 -37 c-37 -49 -79 -66 -166 -66 l-70 0 0 -30
0 -30 505 0 505 0 0 30 0 30 -68 0 c-78 0 -142 27 -176 73 -20 27 -21 44 -24
303 l-3 274 -234 0 -234 0 -3 -273z"/>
<path d="M3130 2197 c0 -55 100 -268 168 -358 132 -173 307 -283 554 -347 94
-24 120 -26 293 -26 164 -1 202 2 278 22 159 40 296 116 422 234 l65 60 0 81
0 81 -92 -90 c-134 -130 -213 -183 -336 -225 -129 -44 -326 -44 -455 0 -187
65 -312 234 -372 504 l-17 77 -254 0 c-206 0 -254 -3 -254 -13z"/>
</g>
</svg>
